# File created by Blade
# Date/Time:  Tue Sep 30 19:15:05 2014
# Frame Rate: 120.000 fps
#------------------------------------------------------
:FULLY-SPECIFIED
:DEGREES
688
root -3.218693 33.067133 -3.432393 -8.641113 26.802244 -12.498608
Spine 3.972746 4.997435 10.843107
Head -5.749211 -13.755866 14.182168
LeftShoulder 16.839938 9.963695 18.923451
LeftArm -1.673716 -23.053756 -75.981027
LeftForeArm -119.376380 8.143106 -4.558921
LeftHand -0.000006 29.265322 18.420187
LeftHandThumb1 30.357831 13.997178 22.438692
RightShoulder -9.195644 -20.856666 -16.512058
RightArm 20.330817 -19.016262 78.368867
RightForeArm 22.524399 -11.790745 26.230475
RightHand 0.000039 -6.163388 9.383321
RightHandThumb1 30.482666 -12.916435 -20.793814
LeftUpLeg -6.732238 0.751014 7.902153
LeftLeg 21.867701 -0.000000 -0.000000
LeftFoot -11.025433 -15.302832 -11.202875
LeftToeBase -3.656300 -0.000000 0.000000
RightUpLeg -88.120657 2.206563 7.921827
RightLeg 30.083500 0.000000 0.000000
RightFoot 35.859121 3.796971 5.832504
RightToeBase 19.186501 -0.000000 -0.000000
689
root -3.212094 33.065833 -3.424293 -8.745010 26.746595 -12.503843
Spine 4.075064 4.950550 10.858030
Head -5.760364 -13.710809 14.135896
LeftShoulder 16.921597 10.010728 18.913490
LeftArm -1.546840 -23.168037 -75.969930
LeftForeArm -119.479911 8.122481 -4.566661
LeftHand 0.000079 29.294877 18.449621
LeftHandThumb1 30.357831 13.997178 22.438692
RightShoulder -9.143636 -20.876210 -16.485475
RightArm 20.340244 -18.950150 78.327040
RightForeArm 22.494838 -11.773680 26.231176
RightHand 0.000043 -6.109275 9.390125
RightHandThumb1 30.482666 -12.916435 -20.793814
LeftUpLeg -6.588514 0.635583 7.908846
LeftLeg 21.845900 -0.000000 0.000000
LeftFoot -11.092046 -15.185866 -11.277920
LeftToeBase -3.603500 -0.000000 0.000000
RightUpLeg -88.505315 2.181012 7.844558
RightLeg 32.655800 -0.000000 -0.000000
RightFoot 35.947914 4.005419 6.168957
RightToeBase 19.207500 -0.000000 -0.000000
690
root -3.209494 33.066233 -3.414193 -8.840410 26.703235 -12.527066
Spine 4.129093 4.898183 10.874074
Head -5.707175 -13.712010 14.089515
LeftShoulder 16.996282 10.031178 18.920657
LeftArm -1.437242 -23.232064 -75.986678
LeftForeArm -119.567762 8.063356 -4.549950
LeftHand 0.000006 29.342055 18.723687
LeftHandThumb1 30.357831 13.997178 22.438692
RightShoulder -9.151494 -20.892341 -16.459977
RightArm 20.643256 -18.948218 78.251988
RightForeArm 22.499606 -11.697705 26.081132
RightHand -0.000052 -6.131380 9.322619
RightHandThumb1 30.482666 -12.916435 -20.793814
LeftUpLeg -6.471591 0.553104 7.941242
LeftLeg 21.840099 -0.000000 -0.000000
LeftFoot -11.153959 -15.118315 -11.366200
LeftToeBase -3.514000 -0.000000 0.000000
RightUpLeg -88.871755 2.172153 7.857591
RightLeg 35.251801 0.000000 0.000000
RightFoot 36.018183 3.914927 6.356282
RightToeBase 19.220800 -0.000000 -0.000000
691
root -3.207694 33.067534 -3.403293 -8.915831 26.648026 -12.567019
Spine 4.127516 4.842473 10.901615
Head -5.603475 -13.715225 14.064086
LeftShoulder 17.063942 10.014354 18.926622
LeftArm -1.378685 -23.199470 -76.034014
LeftForeArm -119.716856 8.059010 -4.575020
LeftHand -0.000005 29.356489 18.727336
LeftHandThumb1 30.357831 13.997178 22.438692
RightShoulder -9.122087 -20.893607 -16.432422
RightArm 20.698454 -18.879219 78.218053
RightForeArm 22.394395 -11.661848 26.130397
RightHand -0.000038 -6.134946 9.426390
RightHandThumb1 30.482666 -12.916435 -20.793814
LeftUpLeg -6.384575 0.526955 7.992431
LeftLeg 21.844801 0.000000 0.000000
LeftFoot -11.205546 -15.088114 -11.329592
LeftToeBase -3.560700 -0.000000 0.000000
RightUpLeg -89.242673 2.186019 7.860677
RightLeg 37.906700 0.000000 0.000000
RightFoot 36.073555 3.560637 6.579485
RightToeBase 19.128599 -0.000000 -0.000000
